<?xml version="1.0" encoding="UTF-8" standalone="no"?>
<!DOCTYPE svg PUBLIC "-//W3C//DTD SVG 1.1//EN" "http://www.w3.org/Graphics/SVG/1.1/DTD/svg11.dtd">
<!-- Generated by graphviz version 2.40.1 (20161225.0304)
 -->
<!-- Title: subleq Pages: 1 -->
<svg width="407pt" height="565pt" viewBox="0.00 0.00 407.00 565.40" xmlns="http://www.w3.org/2000/svg" xmlns:xlink="http://www.w3.org/1999/xlink">
<g id="graph0" class="graph" transform="scale(1 1) rotate(0) translate(4 561.4)">
<title>subleq</title>
<polygon fill="#ffffff" stroke="transparent" points="-4,4 -4,-561.4 403,-561.4 403,4 -4,4"/>
<!-- reset -->
<g id="node1" class="node">
<title>reset</title>
<ellipse fill="none" stroke="#000000" cx="239" cy="-539.4" rx="29.0299" ry="18"/>
<text text-anchor="middle" x="239" y="-535.2" font-family="Times,serif" font-size="14.00" fill="#000000">reset</text>
</g>
<!-- a -->
<g id="node2" class="node">
<title>a</title>
<ellipse fill="none" stroke="#000000" cx="239" cy="-466.4" rx="27" ry="18"/>
<text text-anchor="middle" x="239" y="-462.2" font-family="Times,serif" font-size="14.00" fill="#000000">a</text>
</g>
<!-- reset&#45;&gt;a -->
<g id="edge1" class="edge">
<title>reset-&gt;a</title>
<path fill="none" stroke="#000000" d="M239,-521.3551C239,-513.2828 239,-503.5764 239,-494.5817"/>
<polygon fill="#000000" stroke="#000000" points="242.5001,-494.4903 239,-484.4904 235.5001,-494.4904 242.5001,-494.4903"/>
</g>
<!-- a&#45;&gt;a -->
<g id="edge3" class="edge">
<title>a-&gt;a</title>
<path fill="none" stroke="#000000" d="M264.4435,-473.0907C275.0278,-473.5521 284,-471.3219 284,-466.4 284,-463.17 280.136,-461.0992 274.4881,-460.1876"/>
<polygon fill="#000000" stroke="#000000" points="274.5987,-456.689 264.4435,-459.7093 274.2656,-463.6811 274.5987,-456.689"/>
<text text-anchor="middle" x="310.8842" y="-462.2" font-family="Times,serif" font-size="14.00" fill="#000000">pause = 1</text>
</g>
<!-- b -->
<g id="node3" class="node">
<title>b</title>
<ellipse fill="none" stroke="#000000" cx="170" cy="-393.4" rx="27" ry="18"/>
<text text-anchor="middle" x="170" y="-389.2" font-family="Times,serif" font-size="14.00" fill="#000000">b</text>
</g>
<!-- a&#45;&gt;b -->
<g id="edge2" class="edge">
<title>a-&gt;b</title>
<path fill="none" stroke="#000000" d="M224.3669,-450.9186C214.8529,-440.853 202.2812,-427.5525 191.6235,-416.277"/>
<polygon fill="#000000" stroke="#000000" points="194.0248,-413.7223 184.612,-408.8591 188.9376,-418.5307 194.0248,-413.7223"/>
</g>
<!-- halt -->
<g id="node4" class="node">
<title>halt</title>
<ellipse fill="none" stroke="#000000" cx="354" cy="-393.4" rx="27" ry="18"/>
<text text-anchor="middle" x="354" y="-389.2" font-family="Times,serif" font-size="14.00" fill="#000000">halt</text>
</g>
<!-- a&#45;&gt;halt -->
<g id="edge4" class="edge">
<title>a-&gt;halt</title>
<path fill="none" stroke="#000000" d="M262.2517,-457.1041C277.3064,-450.6076 297.0108,-441.1862 313,-430.4 319.4482,-426.0501 325.9269,-420.7415 331.7693,-415.5186"/>
<polygon fill="#000000" stroke="#000000" points="334.331,-417.9162 339.279,-408.5478 329.5687,-412.7858 334.331,-417.9162"/>
</g>
<!-- la -->
<g id="node5" class="node">
<title>la</title>
<ellipse fill="none" stroke="#000000" cx="170" cy="-304.6" rx="27" ry="18"/>
<text text-anchor="middle" x="170" y="-300.4" font-family="Times,serif" font-size="14.00" fill="#000000">la</text>
</g>
<!-- b&#45;&gt;la -->
<g id="edge5" class="edge">
<title>b-&gt;la</title>
<path fill="none" stroke="#000000" d="M170,-375.0006C170,-362.8949 170,-346.8076 170,-333.0674"/>
<polygon fill="#000000" stroke="#000000" points="173.5001,-332.672 170,-322.672 166.5001,-332.6721 173.5001,-332.672"/>
</g>
<!-- in -->
<g id="node6" class="node">
<title>in</title>
<ellipse fill="none" stroke="#000000" cx="42" cy="-250.6" rx="27" ry="18"/>
<text text-anchor="middle" x="42" y="-246.4" font-family="Times,serif" font-size="14.00" fill="#000000">in</text>
</g>
<!-- b&#45;&gt;in -->
<g id="edge6" class="edge">
<title>b-&gt;in</title>
<path fill="none" stroke="#000000" d="M154.3091,-378.6349C147.6716,-372.2372 139.9393,-364.5807 133.2302,-357.4 107.3964,-329.7502 79.361,-296.3796 61.285,-274.3828"/>
<polygon fill="#000000" stroke="#000000" points="63.9123,-272.0668 54.8702,-266.5449 58.4952,-276.5003 63.9123,-272.0668"/>
<text text-anchor="middle" x="150.3849" y="-344.8" font-family="Times,serif" font-size="14.00" fill="#000000">a = -1</text>
</g>
<!-- halt&#45;&gt;halt -->
<g id="edge18" class="edge">
<title>halt-&gt;halt</title>
<path fill="none" stroke="#000000" d="M379.4435,-400.0907C390.0278,-400.5521 399,-398.3219 399,-393.4 399,-390.17 395.136,-388.0992 389.4881,-387.1876"/>
<polygon fill="#000000" stroke="#000000" points="389.5987,-383.689 379.4435,-386.7093 389.2656,-390.6811 389.5987,-383.689"/>
</g>
<!-- lb -->
<g id="node7" class="node">
<title>lb</title>
<ellipse fill="none" stroke="#000000" cx="97" cy="-196.6" rx="27" ry="18"/>
<text text-anchor="middle" x="97" y="-192.4" font-family="Times,serif" font-size="14.00" fill="#000000">lb</text>
</g>
<!-- la&#45;&gt;lb -->
<g id="edge7" class="edge">
<title>la-&gt;lb</title>
<path fill="none" stroke="#000000" d="M166.1939,-286.7082C162.2687,-271.2781 155.0001,-248.9634 143,-232.6 138.1929,-226.0451 131.8864,-220.0656 125.4907,-214.9438"/>
<polygon fill="#000000" stroke="#000000" points="127.5541,-212.1166 117.4479,-208.9363 123.3651,-217.7248 127.5541,-212.1166"/>
</g>
<!-- out -->
<g id="node8" class="node">
<title>out</title>
<ellipse fill="none" stroke="#000000" cx="169" cy="-196.6" rx="27" ry="18"/>
<text text-anchor="middle" x="169" y="-192.4" font-family="Times,serif" font-size="14.00" fill="#000000">out</text>
</g>
<!-- la&#45;&gt;out -->
<g id="edge8" class="edge">
<title>la-&gt;out</title>
<path fill="none" stroke="#000000" d="M169.8304,-286.2793C169.6743,-269.421 169.4404,-244.1651 169.2606,-224.747"/>
<polygon fill="#000000" stroke="#000000" points="172.7597,-224.6173 169.1671,-214.6502 165.76,-224.6822 172.7597,-224.6173"/>
<text text-anchor="middle" x="186.7776" y="-246.4" font-family="Times,serif" font-size="14.00" fill="#000000">b = -1</text>
</g>
<!-- in&#45;&gt;in -->
<g id="edge14" class="edge">
<title>in-&gt;in</title>
<path fill="none" stroke="#000000" d="M64.6909,-260.369C76.4238,-261.872 87,-258.6156 87,-250.6 87,-245.0893 82.0011,-241.828 75.0642,-240.8163"/>
<polygon fill="#000000" stroke="#000000" points="74.6859,-237.3167 64.6909,-240.831 74.6959,-244.3167 74.6859,-237.3167"/>
<text text-anchor="middle" x="114.6605" y="-246.4" font-family="Times,serif" font-size="14.00" fill="#000000">ihav = '0'</text>
</g>
<!-- store -->
<g id="node9" class="node">
<title>store</title>
<ellipse fill="none" stroke="#000000" cx="96" cy="-123.6" rx="29.6127" ry="18"/>
<text text-anchor="middle" x="96" y="-119.4" font-family="Times,serif" font-size="14.00" fill="#000000">store</text>
</g>
<!-- in&#45;&gt;store -->
<g id="edge15" class="edge">
<title>in-&gt;store</title>
<path fill="none" stroke="#000000" d="M45.1371,-232.629C48.1101,-217.7433 53.2799,-196.2479 61,-178.6 65.4907,-168.3344 71.7424,-157.7832 77.7215,-148.7027"/>
<polygon fill="#000000" stroke="#000000" points="80.7927,-150.4113 83.5345,-140.1773 75.0092,-146.4678 80.7927,-150.4113"/>
</g>
<!-- lb&#45;&gt;store -->
<g id="edge9" class="edge">
<title>lb-&gt;store</title>
<path fill="none" stroke="#000000" d="M96.7528,-178.5551C96.6422,-170.4828 96.5093,-160.7764 96.3861,-151.7817"/>
<polygon fill="#000000" stroke="#000000" points="99.8846,-151.6414 96.2478,-141.6904 92.8852,-151.7374 99.8846,-151.6414"/>
</g>
<!-- out&#45;&gt;a -->
<g id="edge16" class="edge">
<title>out-&gt;a</title>
<path fill="none" stroke="#000000" d="M188.0313,-209.5928C195.475,-215.691 203.332,-223.6029 208,-232.6 242.9148,-299.8949 243.5407,-392.1497 241.2133,-438.0561"/>
<polygon fill="#000000" stroke="#000000" points="237.712,-437.9765 240.6128,-448.1665 244.6997,-438.3917 237.712,-437.9765"/>
</g>
<!-- out&#45;&gt;out -->
<g id="edge17" class="edge">
<title>out-&gt;out</title>
<path fill="none" stroke="#000000" d="M194.4435,-203.2907C205.0278,-203.7521 214,-201.5219 214,-196.6 214,-193.37 210.136,-191.2992 204.4881,-190.3876"/>
<polygon fill="#000000" stroke="#000000" points="204.5987,-186.889 194.4435,-189.9093 204.2656,-193.8811 204.5987,-186.889"/>
<text text-anchor="middle" x="242.8302" y="-192.4" font-family="Times,serif" font-size="14.00" fill="#000000">obsy = '1'</text>
</g>
<!-- jmp -->
<g id="node10" class="node">
<title>jmp</title>
<ellipse fill="none" stroke="#000000" cx="53" cy="-18" rx="27" ry="18"/>
<text text-anchor="middle" x="53" y="-13.8" font-family="Times,serif" font-size="14.00" fill="#000000">jmp</text>
</g>
<!-- store&#45;&gt;jmp -->
<g id="edge10" class="edge">
<title>store-&gt;jmp</title>
<path fill="none" stroke="#000000" d="M80.5474,-107.8948C75.4915,-101.9622 70.3034,-94.8772 66.891,-87.6 60.8832,-74.788 57.4702,-59.4642 55.5329,-46.4606"/>
<polygon fill="#000000" stroke="#000000" points="58.9605,-45.6685 54.2281,-36.1894 52.0163,-46.5508 58.9605,-45.6685"/>
<text text-anchor="middle" x="90.0545" y="-75" font-family="Times,serif" font-size="14.00" fill="#000000">jmp</text>
<text text-anchor="middle" x="90.0545" y="-58.2" font-family="Times,serif" font-size="14.00" fill="#000000">res &lt;= 0</text>
</g>
<!-- njmp -->
<g id="node11" class="node">
<title>njmp</title>
<ellipse fill="none" stroke="#000000" cx="139" cy="-18" rx="30.7789" ry="18"/>
<text text-anchor="middle" x="139" y="-13.8" font-family="Times,serif" font-size="14.00" fill="#000000">njmp</text>
</g>
<!-- store&#45;&gt;njmp -->
<g id="edge11" class="edge">
<title>store-&gt;njmp</title>
<path fill="none" stroke="#000000" d="M104.5977,-106.1546C107.3845,-100.3041 110.4201,-93.7132 113,-87.6 118.7778,-73.9093 124.6207,-58.4458 129.3001,-45.5776"/>
<polygon fill="#000000" stroke="#000000" points="132.6906,-46.4918 132.7799,-35.8974 126.1033,-44.1238 132.6906,-46.4918"/>
</g>
<!-- jmp&#45;&gt;a -->
<g id="edge12" class="edge">
<title>jmp-&gt;a</title>
<path fill="none" stroke="#000000" d="M39.3512,-33.5935C23.6477,-53.1899 0,-88.523 0,-123.6 0,-393.4 0,-393.4 0,-393.4 0,-435.097 134.7413,-455.3332 201.8837,-462.8285"/>
<polygon fill="#000000" stroke="#000000" points="201.7309,-466.3322 212.0482,-463.9234 202.4806,-459.3725 201.7309,-466.3322"/>
</g>
<!-- njmp&#45;&gt;a -->
<g id="edge13" class="edge">
<title>njmp-&gt;a</title>
<path fill="none" stroke="#000000" d="M168.7198,-23.5683C214.9906,-34.1492 299,-61.8612 299,-123.6 299,-393.4 299,-393.4 299,-393.4 299,-415.4726 282.4263,-434.5082 266.7004,-447.6022"/>
<polygon fill="#000000" stroke="#000000" points="264.3731,-444.9788 258.6462,-453.8925 268.6818,-450.4956 264.3731,-444.9788"/>
</g>
</g>
</svg>